<svg xmlns="http://www.w3.org/2000/svg" width="32" height="32" viewBox="0 0 32 32">
  <g id="app-store-ios" transform="translate(0 -3)">
    <path id="Path_25831" data-name="Path 25831" d="M28.571,3H3.429A3.429,3.429,0,0,0,0,6.429V31.571A3.429,3.429,0,0,0,3.429,35H28.571A3.429,3.429,0,0,0,32,31.571V6.429A3.429,3.429,0,0,0,28.571,3ZM9.071,28.179A1.427,1.427,0,0,1,6.6,26.75l1.021-1.764a2.451,2.451,0,0,1,2.829.814Zm9.921-3.85H6a1.429,1.429,0,1,1,0-2.857H9.643l4.671-8.086L12.85,10.857a1.427,1.427,0,0,1,2.471-1.429l.636,1.1.636-1.1a1.427,1.427,0,1,1,2.471,1.429L12.936,21.471h4.436a1.959,1.959,0,0,1,1.621,2.857Zm7.007,0H23.929l1.4,2.421a1.427,1.427,0,0,1-2.471,1.429q-3.525-6.1-5.286-9.15a3.952,3.952,0,0,1,.507-4.843q1.4,2.432,4.207,7.286H26a1.429,1.429,0,0,1,0,2.857Z" transform="translate(0)" fill="#fff"/>
  </g>
</svg>
