<svg xmlns="http://www.w3.org/2000/svg" xmlns:xlink="http://www.w3.org/1999/xlink" width="32" height="32" viewBox="0 0 32 32">
  <defs>
    <clipPath id="clip-path">
      <rect id="Rectangle_3_Copy_2" data-name="Rectangle 3 Copy 2" width="32" height="32" rx="2" transform="translate(-0.267 -0.267)" fill="#fff"/>
    </clipPath>
  </defs>
  <g id="Group_7" data-name="Group 7" transform="translate(-110.757 0.763)">
    <g id="Mask_Group_7" data-name="Mask Group 7" transform="translate(111.024 -0.496)" clip-path="url(#clip-path)">
      <g id="__TEMP__SVG__">
        <g id="Group_111" data-name="Group 111">
          <path id="Path_25823" data-name="Path 25823" d="M15.733,0c-4.27,0-4.806.02-6.484.094A11.593,11.593,0,0,0,5.428.826,7.7,7.7,0,0,0,2.641,2.641,7.723,7.723,0,0,0,.826,5.428,11.524,11.524,0,0,0,.094,9.243C.02,10.925,0,11.459,0,15.735s.02,4.806.094,6.484a11.59,11.59,0,0,0,.732,3.819,8.055,8.055,0,0,0,4.6,4.6,11.55,11.55,0,0,0,3.819.732c1.679.075,2.214.094,6.488.094s4.806-.02,6.486-.094a11.614,11.614,0,0,0,3.821-.732,8.054,8.054,0,0,0,4.6-4.6,11.641,11.641,0,0,0,.732-3.819c.075-1.678.094-2.212.094-6.486s-.02-4.808-.094-6.488a11.628,11.628,0,0,0-.732-3.817,7.721,7.721,0,0,0-1.815-2.787A7.691,7.691,0,0,0,26.038.826,11.574,11.574,0,0,0,22.217.094C20.537.02,20,0,15.729,0h.006Zm-1.41,2.836h1.412c4.2,0,4.7.014,6.356.09a8.719,8.719,0,0,1,2.922.541,4.881,4.881,0,0,1,1.809,1.178A4.861,4.861,0,0,1,28,6.454a8.641,8.641,0,0,1,.541,2.92c.077,1.658.092,2.155.092,6.354s-.016,4.7-.092,6.356A8.7,8.7,0,0,1,28,25.005a5.215,5.215,0,0,1-2.987,2.983,8.655,8.655,0,0,1-2.92.543c-1.658.075-2.155.092-6.356.092s-4.7-.018-6.358-.092a8.69,8.69,0,0,1-2.92-.543,4.873,4.873,0,0,1-1.809-1.176A4.877,4.877,0,0,1,3.467,25a8.692,8.692,0,0,1-.541-2.92c-.075-1.658-.09-2.155-.09-6.358s.016-4.7.09-6.354a8.7,8.7,0,0,1,.543-2.922A4.881,4.881,0,0,1,4.647,4.639,4.861,4.861,0,0,1,6.456,3.463a8.69,8.69,0,0,1,2.92-.543c1.451-.067,2.014-.087,4.946-.088v0Zm9.809,2.612A1.888,1.888,0,1,0,26.02,7.335a1.888,1.888,0,0,0-1.888-1.888Zm-8.4,2.207a8.08,8.08,0,1,0,8.081,8.08,8.079,8.079,0,0,0-8.081-8.08Zm0,2.834a5.245,5.245,0,1,1-5.245,5.245A5.245,5.245,0,0,1,15.735,10.488Z" fill="#fff"/>
        </g>
      </g>
    </g>
  </g>
</svg>
