<svg xmlns="http://www.w3.org/2000/svg" width="32" height="32" viewBox="0 0 32 32">
  <g id="linkedin-rect" transform="translate(-0.009 -0.012)">
    <path id="Path_25828" data-name="Path 25828" d="M6.28.012A6.29,6.29,0,0,0,.009,6.283v19.46a6.289,6.289,0,0,0,6.271,6.27h19.46a6.288,6.288,0,0,0,6.27-6.27V6.283A6.289,6.289,0,0,0,25.739.012ZM7.857,5.293a2.52,2.52,0,1,1-.032,5.024H7.794a2.519,2.519,0,1,1,.063-5.024Zm14.249,6.669c3.18,0,5.564,2.078,5.564,6.545v8.338H22.837V19.065c0-1.955-.7-3.288-2.448-3.288a2.646,2.646,0,0,0-2.48,1.767,3.311,3.311,0,0,0-.159,1.179v8.121H12.917s.063-13.177,0-14.542H17.75v2.059a4.8,4.8,0,0,1,4.356-2.4Zm-16.7.342h4.833V26.845H5.409V12.3Z" fill="#fff"/>
  </g>
</svg>
