<svg id="telegram" xmlns="http://www.w3.org/2000/svg" width="32" height="32" viewBox="0 0 32 32">
  <g id="Group_120" data-name="Group 120">
    <path id="Path_25833" data-name="Path 25833" d="M32,16A16,16,0,1,1,16,0,16,16,0,0,1,32,16ZM16.574,11.812q-2.334.972-9.332,4.02c-.756.3-1.154.6-1.19.884-.06.486.55.678,1.38.94l.35.11a11.364,11.364,0,0,0,2.486.588A3.016,3.016,0,0,0,12,17.714q6.537-4.413,6.748-4.46a.363.363,0,0,1,.332.032.322.322,0,0,1,.074.282A45.186,45.186,0,0,1,15.466,17.2c-.386.36-.66.614-.716.672q-.185.189-.376.372c-.76.732-1.328,1.28.03,2.176.654.432,1.178.786,1.7,1.142.568.388,1.136.774,1.872,1.258.186.12.366.25.54.374a3.044,3.044,0,0,0,1.994.828c.428-.04.87-.44,1.094-1.64.53-2.834,1.572-8.972,1.812-11.5a2.852,2.852,0,0,0-.026-.63.674.674,0,0,0-.228-.434,1.052,1.052,0,0,0-.62-.186c-.6.01-1.526.332-5.968,2.18Z" fill="#fff"/>
  </g>
</svg>
