<svg xmlns="http://www.w3.org/2000/svg" width="31.848" height="32" viewBox="0 0 31.848 32">
  <g id="whatsapp" transform="translate(-0.114 0)">
    <path id="Path_25824" data-name="Path 25824" d="M23.334,19.176c-.4-.2-2.344-1.156-2.707-1.289s-.628-.2-.893.2-1.023,1.288-1.253,1.552-.463.3-.859.1a10.878,10.878,0,0,1-3.187-1.967,11.927,11.927,0,0,1-2.2-2.745c-.231-.4-.024-.611.173-.808.179-.177.4-.463.595-.693a2.733,2.733,0,0,0,.4-.663.726.726,0,0,0-.033-.693c-.1-.2-.892-2.149-1.221-2.943-.323-.772-.649-.667-.892-.68s-.507-.015-.76-.013a1.452,1.452,0,0,0-1.056.5,4.443,4.443,0,0,0-1.387,3.305,7.721,7.721,0,0,0,1.617,4.1c.2.264,2.795,4.267,6.769,5.983a22.4,22.4,0,0,0,2.259.833,5.4,5.4,0,0,0,2.495.157,4.081,4.081,0,0,0,2.675-1.884,3.3,3.3,0,0,0,.231-1.884c-.1-.165-.363-.264-.76-.463M16.1,29.047H16.1A13.161,13.161,0,0,1,9.39,27.209l-.48-.285L3.922,28.233l1.331-4.864-.313-.5A13.18,13.18,0,1,1,16.1,29.047m11.217-24.4A15.86,15.86,0,0,0,2.365,23.783L.114,32l8.407-2.205A15.843,15.843,0,0,0,16.1,31.725H16.1A15.864,15.864,0,0,0,27.322,4.651Z" transform="translate(0 0)" fill="#fff"/>
  </g>
</svg>
